<svg width="16" height="17" viewBox="0 0 16 17" fill="none" xmlns="http://www.w3.org/2000/svg">
<g id="lock">
<path id="Vector" d="M13 7.66675H3C1.89543 7.66675 1 8.41294 1 9.33341V14.3334C1 15.2539 1.89543 16.0001 3 16.0001H13C14.1046 16.0001 15 15.2539 15 14.3334V9.33341C15 8.41294 14.1046 7.66675 13 7.66675Z" stroke="#484C52" stroke-linecap="round" stroke-linejoin="round"/>
<path id="Vector_2" d="M8 12.6667C8.55228 12.6667 9 12.2936 9 11.8333C9 11.3731 8.55228 11 8 11C7.44772 11 7 11.3731 7 11.8333C7 12.2936 7.44772 12.6667 8 12.6667Z" stroke="#484C52" stroke-linecap="round" stroke-linejoin="round"/>
<path id="Vector_3" d="M4 7.66667V4.33333C4 3.44928 4.42143 2.60143 5.17157 1.97631C5.92172 1.35119 6.93913 1 8 1C9.06087 1 10.0783 1.35119 10.8284 1.97631C11.5786 2.60143 12 3.44928 12 4.33333V7.66667" stroke="#484C52" stroke-linecap="round" stroke-linejoin="round"/>
</g>
</svg>
